<?xml version="1.0" standalone="no"?>
<svg xmlns:xlink="http://www.w3.org/1999/xlink" id="wave" style="transform:rotate(0deg); transition: 0.3s" viewBox="0 0 1440 240" version="1.1" xmlns="http://www.w3.org/2000/svg"><defs><linearGradient id="sw-gradient-0" x1="0" x2="0" y1="1" y2="0"><stop stop-color="rgba(0, 0, 0, 1)" offset="0%"/><stop stop-color="rgba(152.865, 152.176, 150.653, 1)" offset="100%"/></linearGradient></defs><path style="transform:translate(0, 0px); opacity:1" fill="url(#sw-gradient-0)" d="M0,192L21.8,196C43.6,200,87,208,131,204C174.5,200,218,184,262,180C305.5,176,349,184,393,188C436.4,192,480,192,524,188C567.3,184,611,176,655,164C698.2,152,742,136,785,132C829.1,128,873,136,916,136C960,136,1004,128,1047,112C1090.9,96,1135,72,1178,56C1221.8,40,1265,32,1309,40C1352.7,48,1396,72,1440,68C1483.6,64,1527,32,1571,48C1614.5,64,1658,128,1702,132C1745.5,136,1789,80,1833,80C1876.4,80,1920,136,1964,148C2007.3,160,2051,128,2095,104C2138.2,80,2182,64,2225,56C2269.1,48,2313,48,2356,64C2400,80,2444,112,2487,120C2530.9,128,2575,112,2618,112C2661.8,112,2705,128,2749,116C2792.7,104,2836,64,2880,52C2923.6,40,2967,56,3011,52C3054.5,48,3098,24,3120,12L3141.8,0L3141.8,240L3120,240C3098.2,240,3055,240,3011,240C2967.3,240,2924,240,2880,240C2836.4,240,2793,240,2749,240C2705.5,240,2662,240,2618,240C2574.5,240,2531,240,2487,240C2443.6,240,2400,240,2356,240C2312.7,240,2269,240,2225,240C2181.8,240,2138,240,2095,240C2050.9,240,2007,240,1964,240C1920,240,1876,240,1833,240C1789.1,240,1745,240,1702,240C1658.2,240,1615,240,1571,240C1527.3,240,1484,240,1440,240C1396.4,240,1353,240,1309,240C1265.5,240,1222,240,1178,240C1134.5,240,1091,240,1047,240C1003.6,240,960,240,916,240C872.7,240,829,240,785,240C741.8,240,698,240,655,240C610.9,240,567,240,524,240C480,240,436,240,393,240C349.1,240,305,240,262,240C218.2,240,175,240,131,240C87.3,240,44,240,22,240L0,240Z"/></svg>